:SAMPLES-PER-SECOND 30
:FULLY-SPECIFIED
:DEGREES
573
root  84.7484 38.6046 0.912792 -133.174 -85.4569 132.583
RightUpLeg  -10.7703 -3.23786 -8.74447
RightLeg  22.7682 4.2707 1.75499
RightFoot  -10.3962 -0.104636 4.10361
RightToes  1.45519e-009 0 -3.6325e-017
Spine  8.47903 -1.17304 -6.11918
Spine1  8.3992 -1.92601 0.566704
HEad  -6.82106 -24.0773 -4.7059
LeftShoulder1  -0.615623 5.14163 -31.4326
LeftArm  -6.0883 1.39689 -44.0393
LeftForeArm  22.6946 -6.11397 -7.94374
LeftHand  -0.0466908 14.471 0.600742
RightShoulder  -1.11472 -6.5053 30.6052
RightArm  16.781 -10.332 47.3999
RightForeArm  6.92217 21.7661 4.49276
RightHand  -0.17322 5.56562 -2.17141
LeftUpLeg  -1.00782 6.34497 -1.93063
LeftLeg  12.6048 2.75738 -0.187112
LeftFoot  -15.8084 -0.0856209 -4.62782
LeftToes  -2.53752e-010 -2.07034e-011 -2.70101e-011
574
root  84.9043 38.6261 0.930301 -134.194 -85.0032 133.723
RightUpLeg  -9.55291 -4.0453 -8.36173
RightLeg  21.6484 2.75545 0.995803
RightFoot  -12.0149 -0.0649945 2.93824
RightToes  1.45519e-009 0 -3.6325e-017
Spine  8.20936 -1.21624 -5.98988
Spine1  8.65002 -1.99782 0.796246
HEad  -7.19444 -23.7625 -4.97901
LeftShoulder1  -0.718631 5.39746 -31.7984
LeftArm  -6.74926 3.18515 -42.9905
LeftForeArm  23.6365 -4.81173 -7.48834
LeftHand  0.112032 16.4383 1.81711
RightShoulder  -1.1005 -6.48943 30.3253
RightArm  17.7166 -10.4555 47.5048
RightForeArm  6.77768 21.8817 4.5149
RightHand  -0.0674621 6.28222 -1.00092
LeftUpLeg  -0.935904 6.19409 -2.1832
LeftLeg  11.8529 3.26343 -0.312008
LeftFoot  -16.0322 -0.119111 -5.22896
LeftToes  -2.53752e-010 -2.07034e-011 -2.70101e-011
575
root  85.0111 38.6984 0.929617 -138.53 -84.3278 138.345
RightUpLeg  -8.78329 -3.3521 -7.93219
RightLeg  19.7944 1.29472 0.309657
RightFoot  -12.8371 -0.062692 1.77891
RightToes  1.45519e-009 0 -3.6325e-017
Spine  8.16006 -1.00991 -5.37693
Spine1  8.12275 -1.73535 0.955775
HEad  -7.31194 -23.6115 -5.74162
LeftShoulder1  -0.716478 5.37637 -32.1057
LeftArm  -6.47454 5.66206 -41.8349
LeftForeArm  23.4584 -5.82238 -7.79147
LeftHand  0.123763 22.8894 1.71539
RightShoulder  -1.1229 -6.53066 30.5643
RightArm  19.344 -10.2302 46.7381
RightForeArm  7.43025 21.9601 4.50212
RightHand  -0.0622503 5.56701 -0.978069
LeftUpLeg  -0.75505 6.06902 -2.23043
LeftLeg  10.6221 4.08143 -0.487437
LeftFoot  -16.2123 -0.181151 -6.54189
LeftToes  -2.53752e-010 -2.07034e-011 -2.70101e-011
576
root  85.0514 38.7785 0.915632 -147.83 -83.1113 147.703
RightUpLeg  -8.4324 -1.02104 -7.66019
RightLeg  18.2486 0.358368 -0.0777674
RightFoot  -12.4531 -0.0635586 2.16722
RightToes  1.45519e-009 0 -3.6325e-017
Spine  7.19588 -0.459688 -4.36017
Spine1  9.51225 -1.0011 0.776024
HEad  -7.82217 -23.3575 -5.51123
LeftShoulder1  -0.697985 5.33592 -31.9436
LeftArm  -6.62151 7.14915 -41.7513
LeftForeArm  24.1433 -6.99476 -7.64379
LeftHand  -0.366127 24.2015 -1.39835
RightShoulder  -1.07827 -6.43338 30.2686
RightArm  20.2338 -8.78368 46.7184
RightForeArm  7.83118 21.0425 4.55613
RightHand  -0.0921621 5.71472 -1.29008
LeftUpLeg  -0.101425 6.04841 -2.17561
LeftLeg  9.37054 5.80551 -0.49187
LeftFoot  -15.5897 -0.141992 -6.34084
LeftToes  -2.53752e-010 -2.07034e-011 -2.70101e-011
577
root  85.1446 38.8205 0.884605 -148.347 -83.7123 148.737
RightUpLeg  -8.83953 -1.857 -7.21344
RightLeg  17.8568 0.938376 0.121287
RightFoot  -11.886 -0.0684118 2.58483
RightToes  1.45519e-009 0 -3.6325e-017
Spine  7.40926 -0.803803 -3.18029
Spine1  8.56901 -1.36893 1.03069
HEad  -7.66219 -22.9243 -6.07428
LeftShoulder1  -0.620101 5.13447 -31.8703
LeftArm  -6.05065 9.21007 -41.4859
LeftForeArm  24.9571 -8.70285 -7.67924
LeftHand  -0.490042 22.5628 -2.36314
RightShoulder  -1.0946 -6.47094 30.3381
RightArm  20.6792 -7.01692 46.0136
RightForeArm  8.31683 18.9126 4.93716
RightHand  -0.0484167 6.02971 -0.823883
LeftUpLeg  -0.948485 6.03458 -1.79632
LeftLeg  9.4929 5.37671 -0.324307
LeftFoot  -15.5093 -0.148917 -6.62618
LeftToes  -2.53752e-010 -2.07034e-011 -2.70101e-011
578
root  85.1195 38.8603 0.817384 -152.893 -83.4876 153.395
RightUpLeg  -8.42778 -3.4567 -6.7938
RightLeg  16.7309 2.68876 0.621083
RightFoot  -11.3786 -0.0756203 2.62167
RightToes  1.45519e-009 0 -3.6325e-017
Spine  6.60651 -0.70119 -2.38338
Spine1  9.44784 -1.36433 1.62446
HEad  -7.61306 -22.6512 -5.9336
LeftShoulder1  -0.555779 4.97634 -31.5994
LeftArm  -6.28126 10.3072 -42.2126
LeftForeArm  26.3709 -9.66708 -7.29873
LeftHand  -0.48314 21.0785 -2.58904
RightShoulder  -0.996335 -6.2591 29.6048
RightArm  19.0249 -4.62444 46.2424
RightForeArm  9.54607 16.0998 5.68823
RightHand  -0.133455 6.02114 -1.68224
LeftUpLeg  -0.936025 6.2003 -1.34279
LeftLeg  9.29563 5.65849 -0.21141
LeftFoot  -15.4694 -0.176861 -7.28029
LeftToes  -2.53752e-010 -2.07034e-011 -2.70101e-011
579
root  84.9912 38.9004 0.722223 -157.544 -82.3357 157.353
RightUpLeg  -7.29988 -4.16879 -6.72354
RightLeg  15.9571 4.59961 1.05518
RightFoot  -10.5854 -0.0836931 1.79744
RightToes  1.45519e-009 0 -3.6325e-017
Spine  7.23404 -0.0633977 -1.88319
Spine1  9.01146 -0.79525 2.20091
HEad  -6.73594 -22.4559 -5.95262
LeftShoulder1  -0.595497 5.07925 -31.6502
LeftArm  -5.71107 11.1631 -42.3844
LeftForeArm  25.2991 -10.6348 -7.25626
LeftHand  -0.243154 21.7605 -0.817006
RightShoulder  -1.09674 -6.49577 30.129
RightArm  17.7957 -2.18127 45.1618
RightForeArm  10.9629 13.5664 6.4667
RightHand  -0.209903 6.10594 -2.45912
LeftUpLeg  0.669876 6.47252 -1.16412
LeftLeg  8.34877 6.67038 -0.336693
LeftFoot  -13.801 -0.0204427 -4.96498
LeftToes  -2.53752e-010 -2.07034e-011 -2.70101e-011
580
root  84.8155 38.8893 0.599328 -160.852 -81.4267 159.691
RightUpLeg  -6.16848 -2.66492 -6.45357
RightLeg  15.9165 4.05079 0.727132
RightFoot  -10.0495 -0.0803524 1.0764
RightToes  1.45519e-009 0 -3.6325e-017
Spine  7.7716 0.455728 -1.13895
Spine1  9.05213 -0.238631 2.38714
HEad  -5.85447 -22.5083 -5.96816
LeftShoulder1  -0.577336 5.03149 -31.6421
LeftArm  -5.58356 11.1326 -42.7413
LeftForeArm  23.4655 -11.4693 -7.02476
LeftHand  0.067501 20.9885 1.16747
RightShoulder  -1.06604 -6.40243 30.236
RightArm  16.2309 -0.397562 44.588
RightForeArm  12.1733 11.9958 6.74284
RightHand  -0.207641 4.95862 -2.61572
LeftUpLeg  1.99815 6.77866 -0.993171
LeftLeg  8.46175 7.29522 -0.130311
LeftFoot  -13.4721 -0.0126803 -4.92297
LeftToes  -2.53752e-010 -2.07034e-011 -2.70101e-011
581
root  84.7492 38.8283 0.460765 -159.347 -82.7695 158.364
RightUpLeg  -6.25766 -3.98129 -5.97632
RightLeg  16.4661 3.90674 0.731307
RightFoot  -10.109 -0.0705309 0.179685
RightToes  1.45519e-009 0 -3.6325e-017
Spine  7.65415 -0.0283826 -0.0363809
Spine1  8.90091 -0.690642 2.64815
HEad  -5.64019 -22.8776 -5.92496
LeftShoulder1  -0.523796 4.89797 -31.4287
LeftArm  -4.56295 10.6681 -42.9356
LeftForeArm  23.0169 -13.2338 -6.55797
LeftHand  -0.143316 16.9422 -0.366803
RightShoulder  -1.06652 -6.41918 30.0441
RightArm  14.7933 1.16936 44.854
RightForeArm  13.1485 11.0751 6.7037
RightHand  -0.150102 4.00295 -2.12537
LeftUpLeg  0.300101 6.5631 -1.03082
LeftLeg  11.1543 6.57161 1.05311
LeftFoot  -12.8692 0.0314224 -3.50827
LeftToes  -2.53752e-010 -2.07034e-011 -2.70101e-011
582
root  84.6914 38.6656 0.325172 -161.695 -84.1052 160.915
RightUpLeg  -6.82282 -5.01596 -5.06794
RightLeg  17.9027 3.61234 0.833539
RightFoot  -10.7615 -0.0719742 -0.217312
RightToes  1.45519e-009 0 -3.6325e-017
Spine  7.82718 -0.524274 1.9529
Spine1  8.52497 -0.960765 2.38313
HEad  -5.77059 -23.597 -6.28307
LeftShoulder1  -0.51468 4.88731 -31.0539
LeftArm  -3.32725 10.2865 -43.3541
LeftForeArm  20.3132 -15.5835 -5.82581
LeftHand  0.0267709 14.9197 1.06337
RightShoulder  -1.07172 -6.43967 29.9658
RightArm  13.9453 2.85361 45.2035
RightForeArm  12.4987 10.2264 6.78074
RightHand  -0.172757 4.61181 -2.2931
LeftUpLeg  -2.19452 6.32713 -0.387006
LeftLeg  15.642 5.69593 2.06649
LeftFoot  -13.5415 0.020215 -3.16067
LeftToes  -2.53752e-010 -2.07034e-011 -2.70101e-011
583
root  84.556 38.4559 0.166729 -167.943 -84.2036 166.828
RightUpLeg  -7.15696 -3.97367 -4.16371
RightLeg  19.8224 2.51728 0.661033
RightFoot  -11.7343 -0.0821375 -0.753179
RightToes  1.45519e-009 0 -3.6325e-017
Spine  8.17075 -0.317592 3.7862
Spine1  8.44668 -0.447001 1.9171
HEad  -5.71162 -24.3064 -6.55722
LeftShoulder1  -0.483544 4.80267 -31.0797
LeftArm  -1.01665 9.86132 -43.4934
LeftForeArm  18.7213 -18.9654 -4.75724
LeftHand  -0.0609565 10.2243 0.0530288
RightShoulder  -1.01221 -6.31283 29.485
RightArm  14.1283 3.91197 45.5968
RightForeArm  11.4496 10.5549 6.76697
RightHand  -0.159909 4.34645 -2.1731
LeftUpLeg  -4.10992 6.37475 0.570792
LeftLeg  20.7853 5.36242 2.58568
LeftFoot  -14.2736 -0.00435836 -3.50311
LeftToes  -2.53752e-010 -2.07034e-011 -2.70101e-011
584
root  84.4608 38.2558 0.0336842 -171.168 -85.2163 169.421
RightUpLeg  -7.17708 -4.88152 -3.67917
RightLeg  22.0142 2.3712 0.786967
RightFoot  -12.7754 -0.100728 -1.16325
RightToes  1.45519e-009 0 -3.6325e-017
Spine  8.82421 -0.297134 4.7381
Spine1  8.49233 -0.394031 2.63364
HEad  -5.37612 -25.3869 -6.39467
LeftShoulder1  -0.520351 4.88997 -31.3962
LeftArm  -0.0641615 8.63762 -43.8128
LeftForeArm  17.8464 -22.0389 -4.18549
LeftHand  -0.0618407 11.0253 -0.00609883
RightShoulder  -0.985784 -6.25053 29.332
RightArm  16.448 5.10956 45.4104
RightForeArm  8.91731 12.1177 6.90619
RightHand  -0.242064 5.13968 -2.99011
LeftUpLeg  -6.28233 5.75701 1.45016
LeftLeg  26.3147 4.37405 2.67508
LeftFoot  -13.9033 -0.0266586 -4.94621
LeftToes  -2.53752e-010 -2.07034e-011 -2.70101e-011
585
root  84.3147 38.0931 -0.113845 -173.738 -86.2164 171.383
RightUpLeg  -6.90845 -5.40342 -3.23625
RightLeg  23.7012 1.85702 0.645507
RightFoot  -13.7662 -0.119469 -1.24761
RightToes  1.45519e-009 0 -3.6325e-017
Spine  9.21639 -0.431907 5.81398
Spine1  8.56894 -0.276141 2.48963
HEad  -4.85755 -26.0993 -5.7687
LeftShoulder1  -0.495123 4.82427 -31.3513
LeftArm  0.000892159 8.07528 -43.7354
LeftForeArm  18.2962 -25.7316 -4.50033
LeftHand  -0.0295783 9.13971 0.509057
RightShoulder  -1.01377 -6.30164 29.6818
RightArm  19.6156 5.95357 45.4163
RightForeArm  6.56666 14.3713 6.67618
RightHand  -0.24659 4.28113 -3.24033
LeftUpLeg  -8.52773 5.78496 2.48615
LeftLeg  31.8048 2.33806 1.89414
LeftFoot  -12.6845 -0.00655201 -7.19642
LeftToes  -2.53752e-010 -2.07034e-011 -2.70101e-011
586
root  84.1317 38.0069 -0.282443 -168.437 -86.905 165.494
RightUpLeg  -6.4325 -5.60187 -3.29502
RightLeg  24.9022 1.2258 0.387502
RightFoot  -14.5856 -0.134889 -1.27912
RightToes  1.45519e-009 0 -3.6325e-017
Spine  10.1713 -0.5961 6.1756
Spine1  7.54433 -0.111211 1.85028
HEad  -3.9953 -26.9234 -5.85029
LeftShoulder1  -0.450138 4.7107 -31.1578
LeftArm  -0.62432 7.89512 -43.5008
LeftForeArm  20.2624 -28.6218 -5.08701
LeftHand  -0.0278071 7.48349 0.584825
RightShoulder  -0.971193 -6.22195 29.1731
RightArm  23.0284 5.60375 46.4188
RightForeArm  4.49909 17.1747 5.9369
RightHand  -0.239331 4.78867 -3.02699
LeftUpLeg  -10.5705 6.70167 3.14894
LeftLeg  36.8891 0.0998316 0.450024
LeftFoot  -10.246 0.146805 -8.83552
LeftToes  -2.53752e-010 -2.07034e-011 -2.70101e-011
587
root  83.9254 37.9293 -0.398155 -153.658 -88.1793 150.115
RightUpLeg  -5.70254 -6.64436 -3.46853
RightLeg  25.9183 0.954208 0.265722
RightFoot  -15.2457 -0.142846 -1.17107
RightToes  1.45519e-009 0 -3.6325e-017
Spine  10.4195 -1.182 6.84349
Spine1  7.47846 -0.286073 0.765828
HEad  -3.56111 -27.1723 -5.54965
LeftShoulder1  -0.47014 4.77346 -30.8809
LeftArm  -0.667963 7.08248 -43.5734
LeftForeArm  20.4675 -31.0832 -5.65574
LeftHand  -0.000928977 8.12886 1.08979
RightShoulder  -0.977546 -6.24773 29.0698
RightArm  26.4219 5.07148 47.339
RightForeArm  3.09323 21.6212 4.99386
RightHand  -0.203124 3.92351 -2.84263
LeftUpLeg  -12.4408 6.59351 3.63
LeftLeg  41.1412 -1.18206 -0.726473
LeftFoot  -7.26732 0.361632 -9.13084
LeftToes  -2.53752e-010 -2.07034e-011 -2.70101e-011
